<svg width="35" height="35" viewBox="0 0 35 35" fill="none" xmlns="http://www.w3.org/2000/svg">
<path d="M27.7085 16.0416H10.4127L15.7064 9.68329C15.9539 9.38547 16.073 9.00152 16.0375 8.6159C16.0019 8.23028 15.8146 7.87457 15.5168 7.62704C15.219 7.3795 14.8351 7.26041 14.4494 7.29597C14.0638 7.33152 13.7081 7.51881 13.4606 7.81662L6.16891 16.5666C6.11986 16.6362 6.07599 16.7093 6.03766 16.7854C6.03766 16.8583 6.03766 16.902 5.93558 16.975C5.86948 17.1422 5.83487 17.3202 5.8335 17.5C5.83487 17.6798 5.86948 17.8577 5.93558 18.025C5.93558 18.0979 5.93558 18.1416 6.03766 18.2145C6.07599 18.2906 6.11986 18.3637 6.16891 18.4333L13.4606 27.1833C13.5977 27.3479 13.7694 27.4803 13.9635 27.571C14.1576 27.6618 14.3693 27.7086 14.5835 27.7083C14.9242 27.709 15.2545 27.5903 15.5168 27.3729C15.6645 27.2504 15.7866 27.1001 15.876 26.9304C15.9655 26.7607 16.0206 26.5751 16.0382 26.3841C16.0558 26.1931 16.0356 26.0005 15.9787 25.8173C15.9217 25.6341 15.8292 25.464 15.7064 25.3166L10.4127 18.9583H27.7085C28.0953 18.9583 28.4662 18.8046 28.7397 18.5312C29.0132 18.2577 29.1668 17.8867 29.1668 17.5C29.1668 17.1132 29.0132 16.7422 28.7397 16.4688C28.4662 16.1953 28.0953 16.0416 27.7085 16.0416Z" fill="#90949a"/>
</svg>
