<svg width="25" height="25" viewBox="0 0 25 25" fill="none" xmlns="http://www.w3.org/2000/svg">
<path d="M19.7525 2.99521H15.861C15.6669 1.3119 14.2348 0 12.5001 0C10.7657 0 9.33368 1.31185 9.13955 2.99521H5.24789C3.67304 2.99521 2.39197 4.27664 2.39197 5.85143V5.99799C2.39197 7.20143 3.14131 8.23147 4.19691 8.65117V22.1437C4.19691 23.7186 5.47813 25 7.05288 25H17.9475C19.5224 25 20.8035 23.7185 20.8035 22.1437V8.65123C21.859 8.23147 22.6084 7.20143 22.6084 5.99804V5.85149C22.6084 4.27664 21.3273 2.99521 19.7525 2.99521ZM12.5001 1.35455C13.4866 1.35455 14.3101 2.06165 14.4924 2.99521H10.5084C10.6905 2.0616 11.514 1.35455 12.5001 1.35455ZM19.4489 22.1437C19.4489 22.9718 18.7753 23.6455 17.9475 23.6455H7.05282C6.22508 23.6455 5.55141 22.9718 5.55141 22.1437V8.8542H19.4489V22.1437ZM21.2539 5.99799C21.2539 6.82597 20.5801 7.4997 19.7524 7.4997H5.24789C4.42016 7.4997 3.74648 6.82597 3.74648 5.99799V5.85143C3.74648 5.02344 4.42016 4.34971 5.24789 4.34971H19.7525C20.5803 4.34971 21.2539 5.02344 21.2539 5.85143V5.99799Z" fill="white"/>
<path d="M8.86878 21.9132C9.24283 21.9132 9.54603 21.6099 9.54603 21.236V13.6104C9.54603 13.2364 9.24278 12.933 8.86878 12.933C8.49479 12.933 8.19153 13.2364 8.19153 13.6104V21.236C8.19148 21.61 8.49474 21.9132 8.86878 21.9132Z" fill="white"/>
<path d="M12.5004 21.9132C12.8744 21.9132 13.1776 21.6099 13.1776 21.236V13.6104C13.1776 13.2364 12.8744 12.933 12.5004 12.933C12.1264 12.933 11.8231 13.2364 11.8231 13.6104V21.236C11.8231 21.61 12.1263 21.9132 12.5004 21.9132Z" fill="white"/>
<path d="M16.1314 21.9132C16.5054 21.9132 16.8086 21.6099 16.8086 21.236V13.6104C16.8086 13.2364 16.5054 12.933 16.1314 12.933C15.7573 12.933 15.4541 13.2364 15.4541 13.6104V21.236C15.454 21.61 15.7574 21.9132 16.1314 21.9132Z" fill="white"/>
</svg>
