<svg width="30" height="30" viewBox="0 0 30 30" fill="none" xmlns="http://www.w3.org/2000/svg">
<path d="M15 0C14.4184 0 13.9469 0.471429 13.9469 1.05306V21.3306L10.3469 17.7306C9.93673 17.3204 9.26939 17.3204 8.85918 17.7306C8.44898 18.1408 8.44898 18.8082 8.85918 19.2184L14.2531 24.6122C14.4551 24.8143 14.7245 24.9184 14.9939 24.9184C15.2633 24.9184 15.5327 24.8143 15.7347 24.6122L21.1286 19.2184C21.5388 18.8082 21.5388 18.1408 21.1286 17.7306C20.7184 17.3204 20.051 17.3204 19.6408 17.7306L16.0408 21.3306V1.04694C16.0469 0.465306 15.5816 0 15 0Z" fill="#031B4E"/>
<path d="M28.2918 28.9531V22.849C28.2918 22.2673 27.8204 21.7959 27.2388 21.7959C26.6571 21.7959 26.1857 22.2673 26.1857 22.849V27.9061H3.80816V22.849C3.80816 22.2673 3.33673 21.7959 2.76122 21.7959C2.18571 21.7959 1.70816 22.2673 1.70816 22.849V28.9531C1.70816 29.5347 2.17959 30 2.76122 30H27.2388C27.8204 30 28.2918 29.5347 28.2918 28.9531Z" fill="#031B4E"/>
</svg>
