<svg width="30" height="30" viewBox="0 0 30 30" fill="none" xmlns="http://www.w3.org/2000/svg">
<path d="M28.7193 1.01106L28.6832 0.978124C27.9927 0.347395 27.0976 0 26.1628 0C25.1149 0 24.1087 0.443617 23.4022 1.217L10.0438 15.8418C9.92201 15.9751 9.82966 16.1324 9.77256 16.3036L8.2018 21.0125C8.02019 21.5569 8.11134 22.159 8.44558 22.623C8.78248 23.0906 9.32525 23.3698 9.89759 23.3698H9.89767C10.1452 23.3698 10.3872 23.3189 10.6167 23.2185L15.1647 21.2289C15.33 21.1566 15.4784 21.0504 15.6 20.9171L28.9586 6.29233C30.3487 4.77058 30.2415 2.40159 28.7193 1.01106ZM11.2113 20.1427L12.133 17.3795L12.2108 17.2944L13.9577 18.89L13.88 18.9751L11.2113 20.1427ZM27.0539 4.55251L15.6975 16.9854L13.9506 15.3898L25.307 2.95682C25.5291 2.71364 25.8331 2.57967 26.1629 2.57967C26.4523 2.57967 26.7294 2.68733 26.9439 2.88321L26.9799 2.91614C27.4515 3.34686 27.4847 4.08095 27.0539 4.55251Z" fill="#90949a"/>
<path d="M26.1277 11.8998C25.4154 11.8998 24.8379 12.4773 24.8379 13.1897V24.1401C24.8379 25.9488 23.3664 27.4203 21.5577 27.4203H5.92498C4.11621 27.4203 2.64476 25.9488 2.64476 24.1401V8.63441C2.64476 6.82572 4.11629 5.35419 5.92498 5.35419H17.24C17.9523 5.35419 18.5298 4.77669 18.5298 4.06436C18.5298 3.35202 17.9523 2.77452 17.24 2.77452H5.92498C2.69378 2.77452 0.065094 5.40329 0.065094 8.63441V24.14C0.065094 27.3711 2.69386 29.9999 5.92498 29.9999H21.5576C24.7887 29.9999 27.4175 27.3711 27.4175 24.14V13.1897C27.4176 12.4773 26.8401 11.8998 26.1277 11.8998Z" fill="#90949a"/>
</svg>
