<svg width="50" height="50" viewBox="0 0 50 50" fill="none" xmlns="http://www.w3.org/2000/svg">
<g clip-path="url(#clip0_44_61)">
<path d="M25 1C11.1937 1 0 12.1937 0 26C0 37.7146 8.06667 47.5167 18.9417 50.2292C18.825 49.8917 18.75 49.5 18.75 49.0146V44.7417C17.7354 44.7417 16.0354 44.7417 15.6083 44.7417C13.8979 44.7417 12.3771 44.0062 11.6396 42.6396C10.8208 41.1208 10.6792 38.7979 8.65 37.3771C8.04792 36.9042 8.50625 36.3646 9.2 36.4375C10.4812 36.8 11.5437 37.6792 12.5437 38.9833C13.5396 40.2896 14.0083 40.5854 15.8687 40.5854C16.7708 40.5854 18.1208 40.5333 19.3917 40.3333C20.075 38.5979 21.2562 37 22.7 36.2458C14.375 35.3896 10.4021 31.2479 10.4021 25.625C10.4021 23.2042 11.4333 20.8625 13.1854 18.8896C12.6104 16.9312 11.8875 12.9375 13.4062 11.4167C17.1521 11.4167 19.4167 13.8458 19.9604 14.5021C21.8271 13.8625 23.8771 13.5 26.0312 13.5C28.1896 13.5 30.2479 13.8625 32.1187 14.5062C32.6562 13.8542 34.9229 11.4167 38.6771 11.4167C40.2021 12.9396 39.4708 16.95 38.8896 18.9042C40.6312 20.8729 41.6562 23.2083 41.6562 25.625C41.6562 31.2437 37.6896 35.3833 29.3771 36.2437C31.6646 37.4375 33.3333 40.7917 33.3333 43.3187V49.0146C33.3333 49.2313 33.2854 49.3875 33.2604 49.5729C43.0021 46.1583 50 36.9083 50 26C50 12.1937 38.8062 1 25 1Z" fill="white"/>
</g>
<defs>
<clipPath id="clip0_44_61">
<rect width="50" height="50" fill="white"/>
</clipPath>
</defs>
</svg>
