<svg width="38" height="38" viewBox="0 0 38 38" fill="none" xmlns="http://www.w3.org/2000/svg">
<g filter="url(#filter0_d_1_34)">
<path d="M18.9997 29.7699C18.0935 29.7699 17.3586 29.0354 17.3586 28.1287V1.87125C17.3586 0.965046 18.0935 0.230164 18.9997 0.230164C19.9063 0.230164 20.6409 0.965046 20.6409 1.87125V28.1287C20.6409 29.0354 19.9063 29.7699 18.9997 29.7699Z" fill="#031B4E"/>
<path d="M32.1286 16.6412H5.87107C4.96486 16.6412 4.22998 15.9066 4.22998 15C4.22998 14.0938 4.96486 13.3589 5.87107 13.3589H32.1286C33.035 13.3589 33.7696 14.0938 33.7696 15C33.7696 15.9066 33.035 16.6412 32.1286 16.6412Z" fill="#031B4E"/>
</g>
<defs>
<filter id="filter0_d_1_34" x="0" y="0" width="38" height="38" filterUnits="userSpaceOnUse" color-interpolation-filters="sRGB">
<feFlood flood-opacity="0" result="BackgroundImageFix"/>
<feColorMatrix in="SourceAlpha" type="matrix" values="0 0 0 0 0 0 0 0 0 0 0 0 0 0 0 0 0 0 127 0" result="hardAlpha"/>
<feOffset dy="4"/>
<feGaussianBlur stdDeviation="2"/>
<feComposite in2="hardAlpha" operator="out"/>
<feColorMatrix type="matrix" values="0 0 0 0 0 0 0 0 0 0 0 0 0 0 0 0 0 0 0.25 0"/>
<feBlend mode="normal" in2="BackgroundImageFix" result="effect1_dropShadow_1_34"/>
<feBlend mode="normal" in="SourceGraphic" in2="effect1_dropShadow_1_34" result="shape"/>
</filter>
</defs>
</svg>
