<svg width="43" height="43" viewBox="0 0 43 43" fill="none" xmlns="http://www.w3.org/2000/svg">
<g clip-path="url(#clip0_1_136)">
<path d="M31.6569 31.6573C31.0162 32.2981 29.9771 32.2983 29.336 31.6572L10.7692 13.0904C10.1284 12.4496 10.1284 11.4103 10.7692 10.7695C11.4102 10.1285 12.4493 10.1287 13.0901 10.7695L31.6569 29.3364C32.298 29.9774 32.298 31.0162 31.6569 31.6573Z" fill="#031B4E"/>
<path d="M31.657 13.0903L13.0901 31.6572C12.4493 32.298 11.4103 32.2982 10.7692 31.6572C10.1284 31.0164 10.1284 29.9771 10.7692 29.3363L29.3361 10.7695C29.977 10.1285 31.0161 10.1287 31.6569 10.7695C32.2979 11.4106 32.2979 12.4494 31.657 13.0903Z" fill="#031B4E"/>
</g>
<defs>
<clipPath id="clip0_1_136">
<rect width="30" height="30" fill="white" transform="translate(0 21.2132) rotate(-45)"/>
</clipPath>
</defs>
</svg>
